Coordinates
version=1
nRows=16
nColumns=28
inDegrees=yes

Units are S.I. units (second, meters, Newtons, ...)
Angles are in degrees.

endheader
time	pelvis_tilt	pelvis_list	pelvis_rotation	pelvis_tx	pelvis_ty	pelvis_tz	hip_flexion_r	hip_adduction_r	hip_rotation_r	knee_angle_r	ankle_angle_r	subtalar_angle_r	mtp_angle_r	hip_flexion_l	hip_adduction_l	hip_rotation_l	knee_angle_l	socket_flexion	socket_adduction	socket_rotation	socket_tx	socket_ty	socket_tz	foot_flex	lumbar_extension	lumbar_bending	lumbar_rotation
      0.93750000	      5.84591288	     -1.34776043	     -2.13456646	      0.42373239	      1.04029285	      0.29339795	     -1.42802058	      3.67341770	     -7.01160844	    -16.93439504	     12.41150794	     -0.47989810	      9.32204483	      3.68544364	     -1.47463402	      0.16961938	    -55.15063773	     -1.35381852	      0.00000000	      0.00000000	      0.00000000	      0.00000000	      0.00000000	      0.10682586	    -12.98844447	      1.98926361	      3.98799669
      0.94166667	      5.87065981	     -1.32619833	     -2.38405249	      0.42808947	      1.04096219	      0.29377717	     -1.77248225	      3.60118091	     -7.05796556	    -16.85543473	     12.41131699	     -0.43014896	      9.33092626	      4.24658745	     -1.41280926	      0.20283486	    -54.86828229	     -1.42322592	      0.00000000	      0.00000000	      0.00000000	      0.00000000	      0.00000000	      0.12039925	    -13.11253325	      1.96825050	      4.03669352
      0.94583333	      5.79788598	     -1.07583575	     -2.55923259	      0.43322417	      1.04177537	      0.29434299	     -2.35821599	      3.36864215	     -6.83182627	    -16.11950051	     12.32301455	     -0.01514854	      9.37519911	      4.76237383	     -1.11331601	      0.30998650	    -54.18889369	     -1.28572138	      0.00000000	      0.00000000	      0.00000000	      0.00000000	      0.00000000	      0.05306750	    -12.94860516	      1.56208223	      4.34443774
      0.95000000	      5.82929703	     -1.07705619	     -2.80844800	      0.43751195	      1.04232179	      0.29472340	     -2.67267808	      3.31260487	     -6.89153804	    -16.10932232	     12.31478731	      0.00994319	      9.38018152	      5.30490948	     -1.08342713	      0.35195363	    -53.86847858	     -1.38965649	      0.00000000	      0.00000000	      0.00000000	      0.00000000	      0.00000000	      0.08379075	    -13.08727900	      1.56293862	      4.38192728
      0.95416667	      5.75264962	     -0.81309393	     -3.01199956	      0.44265434	      1.04316367	      0.29531258	     -3.23416667	      3.05240877	     -6.66676898	    -15.39823965	     12.15678505	      0.44933002	      9.43079649	      5.73808987	     -0.77137197	      0.44335057	    -52.91798335	     -1.11291570	      0.00000000	      0.00000000	      0.00000000	      0.00000000	      0.00000000	      0.05915567	    -12.92641025	      1.16531708	      4.78250267
      0.95833333	      6.01243320	     -0.50380689	     -3.49286202	      0.44712529	      1.04422550	      0.29617740	     -3.81614044	      2.62344913	     -6.56387641	    -15.29124665	     12.04862500	      0.81757101	      9.77596440	      5.80437686	     -0.42289911	      0.23344850	    -51.93946277	     -0.85099621	      0.00000000	      0.00000000	      0.00000000	      0.00000000	      0.00000000	      0.11178971	    -13.27235649	      0.65081400	      5.50572648
      0.96250000	      5.96834199	     -0.47450981	     -3.64654192	      0.45165793	      1.04469329	      0.29650482	     -4.22091486	      2.58060873	     -6.50143431	    -14.93608717	     12.03709680	      1.00168732	      9.83363070	      6.35644396	     -0.36151343	      0.40298704	    -51.37127494	     -0.84110867	      0.00000000	      0.00000000	      0.00000000	      0.00000000	      0.00000000	      0.07906441	    -13.27052409	      0.58767769	      5.59353354
      0.96666667	      5.98925331	     -0.49553777	     -3.87111669	      0.45589857	      1.04495906	      0.29688019	     -4.51674299	      2.54049274	     -6.55461553	    -14.92709857	     12.03656780	      1.01841954	      9.83946582	      6.89577594	     -0.37172310	      0.47618626	    -51.01105818	     -1.01102239	      0.00000000	      0.00000000	      0.00000000	      0.00000000	      0.00000000	      0.10732266	    -13.40249611	      0.58113515	      5.60876911
      0.97083333	      5.85014889	     -0.37272130	     -3.97921827	      0.46087112	      1.04549726	      0.29722745	     -4.99161460	      2.44015522	     -6.37376123	    -14.24671349	     11.94363833	      1.33876606	      9.89264315	      7.39390097	     -0.20749680	      0.71746505	    -49.99873776	     -0.74893201	      0.00000000	      0.00000000	      0.00000000	      0.00000000	      0.00000000	      0.04633973	    -13.19904193	      0.41458288	      5.82681234
      0.97500000	      5.79616800	     -0.26868195	     -4.17705391	      0.46543565	      1.04587326	      0.29765094	     -5.37125020	      2.30267475	     -6.29488584	    -13.90487206	     11.81372445	      1.50069047	      9.93306857	      7.86814794	     -0.08049997	      0.85070965	    -49.17420574	     -0.62775364	      0.00000000	      0.00000000	      0.00000000	      0.00000000	      0.00000000	      0.07475792	    -13.18189975	      0.26103107	      6.00090437
      0.97916667	      5.76076395	     -0.21759684	     -4.36850908	      0.46993873	      1.04620572	      0.29802146	     -5.73761241	      2.21613530	     -6.22288305	    -13.62591992	     11.75485397	      1.62612833	      9.98309604	      8.31831315	     -0.00883000	      1.00341209	    -48.36373417	     -0.55161381	      0.00000000	      0.00000000	      0.00000000	      0.00000000	      0.00000000	      0.05087310	    -13.18380345	      0.16501419	      6.15883333
      0.98333333	      5.70810356	     -0.14811860	     -4.55280889	      0.47454570	      1.04647402	      0.29848741	     -6.13129960	      2.12641819	     -6.11537293	    -13.27118806	     11.67593101	      1.76845248	     10.04323468	      8.74807796	      0.07209232	      1.18063203	    -47.46046397	     -0.43009595	      0.00000000	      0.00000000	      0.00000000	      0.00000000	      0.00000000	      0.07786835	    -13.14539380	      0.00899275	      6.34468716
      0.98750000	      5.76277114	      0.04088512	     -4.83253444	      0.47912045	      1.04690173	      0.29913187	     -6.61122106	      1.88486593	     -5.94466507	    -12.93099045	     11.43462142	      1.79036943	     10.21783005	      8.99563556	      0.26988271	      1.24199030	    -46.36736874	     -0.21637203	      0.00000000	      0.00000000	      0.00000000	      0.00000000	      0.00000000	      0.12164308	    -13.22949070	     -0.32876602	      6.66262884
      0.99166667	      5.71687754	     -0.02744706	     -4.97660627	      0.48347179	      1.04700672	      0.29942488	     -6.94979412	      1.93105046	     -5.88202757	    -12.70122472	     11.47494663	      1.87513908	     10.29084671	      9.46030981	      0.20400596	      1.47463654	    -45.58312872	     -0.19806703	      0.00000000	      0.00000000	      0.00000000	      0.00000000	      0.00000000	      0.08450222	    -13.25930878	     -0.27659355	      6.76393931
      0.99583333	      5.64969750	     -0.06334838	     -5.10933025	      0.48786680	      1.04705450	      0.29970398	     -7.29056283	      1.94763619	     -5.80290797	    -12.41557966	     11.46352437	      1.97593444	     10.34309825	      9.92132986	      0.17449010	      1.73337492	    -44.71803625	     -0.14219452	      0.00000000	      0.00000000	      0.00000000	      0.00000000	      0.00000000	      0.05977312	    -13.24682571	     -0.25699343	      6.87198749
      1.00000000	      5.63719609	      0.10284777	     -5.29214973	      0.49255786	      1.04729217	      0.30028791	     -7.78410815	      1.76538268	     -5.59909285	    -11.92646332	     11.16201417	      1.87566491	     10.50466950	     10.18297603	      0.33521840	      1.90214641	    -43.47163695	      0.14193219	      0.00000000	      0.00000000	      0.00000000	      0.00000000	      0.00000000	      0.12553585	    -13.23066614	     -0.55468818	      7.07635193
